<?xml version="1.0" encoding="UTF-8"?>
<svg id="Camada_1" xmlns="http://www.w3.org/2000/svg" version="1.1" viewBox="0 0 1920 1080">
  <!-- Generator: Adobe Illustrator 29.4.0, SVG Export Plug-In . SVG Version: 2.1.0 Build 152)  -->
  <defs>
    <style>
      .st0, .st1 {
        fill: #fff;
      }

      .st0, .st2 {
        stroke: #000;
        stroke-miterlimit: 10;
      }
    </style>
  </defs>
  <polygon class="st1" points="922.29 537.25 1454.77 1062.72 1899.93 1062.72 1386.15 537.25 922.29 537.25"/>
  <g>
    <g>
      <rect x="922.79" y="73.88" width="462.87" height="462.87"/>
      <path d="M1385.15,74.38v461.87h-461.87V74.38h461.87M1386.15,73.38h-463.87v463.87h463.87V73.38h0Z"/>
    </g>
    <rect class="st0" x="957.71" y="116.58" width="381.51" height="381.51"/>
    <rect class="st2" x="987.27" y="144.82" width="317.15" height="317.15"/>
  </g>
  <polygon class="st1" points="1386.15 73.38 1424.45 108.98 1424.45 576.42 1386.15 537.25 1386.15 73.38"/>
  <polygon class="st1" points="1386.15 66.57 1424.45 102.17 1424.45 576.42 1386.15 537.25 1386.15 66.57"/>
  <polygon class="st1" points="1533.94 217.79 1572.23 253.39 1572.23 720.82 1533.94 681.66 1533.94 217.79"/>
  <polygon class="st1" points="1386.15 537.25 922.29 537.25 961.98 576.42 1424.45 576.42 1386.15 537.25"/>
  <polygon points="1424.78 576.42 960.92 576.42 1000.61 615.58 1463.08 615.58 1424.78 576.42"/>
  <polygon class="st1" points="1462.93 615.58 999.06 615.58 1038.75 654.75 1501.22 654.75 1462.93 615.58"/>
  <polygon class="st1" points="1503.02 657.23 1039.15 657.23 1078.84 696.39 1541.32 696.39 1503.02 657.23"/>
  <polygon points="1501.31 654.75 1037.44 654.75 1077.13 693.91 1539.6 693.91 1501.31 654.75"/>
  <polygon class="st1" points="1539.48 693.91 1075.61 693.91 1115.3 733.08 1577.77 733.08 1539.48 693.91"/>
  <polygon points="1577.84 733.08 1113.97 733.08 1153.66 772.25 1616.13 772.25 1577.84 733.08"/>
  <polygon class="st1" points="1616.1 772.25 1152.23 772.25 1191.92 811.41 1654.39 811.41 1616.1 772.25"/>
  <polygon points="1654.43 811.41 1190.57 811.41 1230.26 850.58 1692.73 850.58 1654.43 811.41"/>
  <polygon class="st1" points="1692.73 850.58 1228.86 850.58 1268.55 889.75 1731.02 889.75 1692.73 850.58"/>
  <polygon points="1731 889.75 1267.14 889.75 1306.82 928.91 1769.3 928.91 1731 889.75"/>
  <polygon class="st1" points="1769.24 928.91 1305.38 928.91 1345.07 968.08 1807.54 968.08 1769.24 928.91"/>
  <polygon points="1807.66 968.16 1343.79 968.16 1383.48 1007.33 1845.96 1007.33 1807.66 968.16"/>
  <polygon class="st1" points="1845.83 1007.33 1381.97 1007.33 1421.66 1046.5 1884.13 1046.5 1845.83 1007.33"/>
  <polygon points="1884.06 1046.5 1420.2 1046.5 1459.89 1085.66 1922.36 1085.66 1884.06 1046.5"/>
  <polygon points="1424.45 105.74 1462.74 141.34 1462.74 615.58 1424.45 576.42 1424.45 105.74"/>
  <polygon class="st1" points="1462.72 144.82 1501.01 180.42 1501.01 654.66 1462.72 615.49 1462.72 144.82"/>
  <polygon points="1500.87 183.79 1539.16 219.38 1539.16 693.63 1500.87 654.46 1500.87 183.79"/>
  <polygon class="st1" points="1539.16 223.24 1577.46 258.84 1577.46 733.08 1539.16 693.91 1539.16 223.24"/>
  <polygon points="1577.46 262.41 1615.75 298.01 1615.75 772.25 1577.46 733.08 1577.46 262.41"/>
  <polygon class="st1" points="1615.75 301.57 1654.05 337.17 1654.05 811.41 1615.75 772.25 1615.75 301.57"/>
  <polygon points="1653.83 340.74 1692.12 376.34 1692.12 850.58 1653.83 811.41 1653.83 340.74"/>
  <polygon points="1730.42 419.07 1768.71 454.67 1768.71 928.91 1730.42 889.75 1730.42 419.07"/>
  <polygon class="st1" points="1692.12 380.24 1730.42 415.84 1730.42 890.09 1692.12 850.92 1692.12 380.24"/>
  <polygon class="st1" points="1768.54 458.56 1806.84 494.16 1806.84 968.41 1768.54 929.24 1768.54 458.56"/>
  <polygon points="1806.84 497.74 1845.13 533.34 1845.13 1007.58 1806.84 968.42 1806.84 497.74"/>
  <polygon class="st1" points="1845.13 536.91 1883.43 572.51 1883.43 1046.75 1845.13 1007.58 1845.13 536.91"/>
  <polygon points="1883.43 575.68 1921.72 611.28 1921.72 1085.52 1883.43 1046.35 1883.43 575.68"/>
  <g>
    <g>
      <rect x="1021.3" y="178.85" width="249.08" height="249.08"/>
      <path d="M1269.88,179.35v248.08h-248.08v-248.08h248.08M1270.88,178.35h-250.08v250.08h250.08v-250.08h0Z"/>
    </g>
    <rect class="st0" x="1039.9" y="201.64" width="205.68" height="205.68"/>
    <rect class="st2" x="1055.83" y="216.86" width="170.98" height="170.98"/>
  </g>
</svg>